<svg
  viewBox="0 0 400 400"
  xmlns="http://www.w3.org/2000/svg"
>
  <!-- Speech bubble that touches the edges -->
  <path d="M 20 80
            C 20 45, 45 20, 80 20
            L 320 20
            C 355 20, 380 45, 380 80
            L 380 270
            C 380 305, 355 330, 320 330
            L 245 330
            C 240 330, 235 335, 235 340
            L 230 380
            C 225 390, 215 395, 205 385
            L 170 340
            C 165 335, 160 330, 155 330
            L 80 330
            C 45 330, 20 305, 20 270
            Z"
        fill="url(#bubbleGradient)" />

  <!-- White horizontal line -->
  <line x1="100" y1="150" x2="300" y2="150" stroke="white" stroke-width="20" stroke-linecap="round" />

  <!-- Second shorter line -->
  <line x1="100" y1="220" x2="230" y2="220" stroke="white" stroke-width="20" stroke-linecap="round" />

  <!-- Gradient definitions -->
  <defs>
    <linearGradient id="bubbleGradient" x1="0%" y1="0%" x2="100%" y2="100%">
      <stop offset="0%" stop-color="#4285F4" />
      <stop offset="100%" stop-color="#34A853" />
    </linearGradient>
  </defs>
</svg>
